<svg xmlns="http://www.w3.org/2000/svg" viewBox="0 0 460 500"><defs><style>.cls-1{isolation:isolate;}.cls-13,.cls-2{font-size:12px;font-family:MyriadPro-Regular, Myriad Pro;}.cls-3{fill:#727272;}.cls-4{fill:#878787;}.cls-4,.cls-5{mix-blend-mode:lighten;}.cls-10,.cls-5,.cls-6{fill:#a8a8a8;stroke:#fff;}.cls-10,.cls-5,.cls-6,.cls-7,.cls-9{stroke-miterlimit:10;}.cls-6{mix-blend-mode:multiply;}.cls-13,.cls-16,.cls-7,.cls-9{fill:#fff;}.cls-7,.cls-9{stroke:#777;}.cls-8{fill:#777;}.cls-9{stroke-width:0.41px;}.cls-11{fill:#444441;opacity:0.5;}.cls-12{fill:#606060;}.cls-14{letter-spacing:-0.01em;}.cls-15{letter-spacing:-0.01em;}.cls-16{font-size:34.31px;font-family:BellMT, Bell MT;}.cls-17{letter-spacing:-0.06em;}</style></defs><title>Untitled-1</title><g class="cls-1"><g id="Layer_1" data-name="Layer 1"><text class="cls-2" transform="translate(208.02 299)">460, 503</text><rect class="cls-3" width="460" height="500"/><rect class="cls-4" x="103" y="72" width="248" height="368"/><rect class="cls-5" x="105" y="70" width="248" height="368"/><polygon class="cls-6" points="353 438 105 70 350.5 70 353 70 353 438"/><rect class="cls-7" x="156.5" y="220" width="147" height="22"/><rect class="cls-7" x="156.5" y="258" width="147" height="22"/><rect class="cls-8" x="156.5" y="258" width="19" height="22"/><rect class="cls-8" x="157" y="220.5" width="19" height="22"/><path class="cls-9" d="M166.5,226h0a2.73,2.73,0,0,1,2.73,2.73v3.16a.4.4,0,0,1-.4.4h-4.66a.4.4,0,0,1-.4-.4v-3.16A2.73,2.73,0,0,1,166.5,226Z"/><path class="cls-9" d="M165.5,232.81h2a4,4,0,0,1,4,4V237a0,0,0,0,1,0,0h-10a0,0,0,0,1,0,0v-.19A4,4,0,0,1,165.5,232.81Z"/><path class="cls-9" d="M617.75,403.26h0l1,1.41.78,0,.73.83,1.15.46.31,1.19s1.93.51,1.61-.68l-4.13-4.66a2.34,2.34,0,1,0-3.94.74A2.35,2.35,0,0,0,617.75,403.26Z" transform="translate(-453 -134)"/><circle class="cls-9" cx="163.63" cy="266.63" r="0.78"/><rect class="cls-10" x="185.25" y="333.5" width="85" height="26" rx="11.83" ry="11.83"/><path class="cls-11" d="M711.79,466.26H682.53l-15.37,28.48h44.63a13,13,0,0,0,13-13v-2.56A13,13,0,0,0,711.79,466.26Z" transform="translate(-453 -134)"/><path class="cls-12" d="M712.79,466.26H683.53l-15.37,28.48h44.63a13,13,0,0,0,13-13v-2.56A13,13,0,0,0,712.79,466.26Z" transform="translate(-453 -134)"/><text class="cls-13" transform="translate(229.86 350.02)"><tspan class="cls-14">L</tspan><tspan x="5.5" y="0">o</tspan><tspan class="cls-15" x="12.08" y="0">g</tspan><tspan x="18.72" y="0">in</tspan></text><text class="cls-13" transform="translate(193.84 350.02)">Exit</text><text class="cls-16" transform="translate(175.18 121.55)">am<tspan class="cls-17" x="41.81" y="0">T</tspan><tspan x="64.55" y="0">ech</tspan></text></g></g></svg>